<svg  xmlns="http://www.w3.org/2000/svg" xmlns:xlink="http://www.w3.org/1999/xlink" width="963" height="200" viewBox="0 0 987 224"><path transform="translate(0 100)" d="M46.3,-82.1L53.7,-82.1L53.7,-64.1L89.6,-64.1L89.6,-17.1L82.4,-17.1L82.4,-23.4L53.7,-23.4L53.7,10.7L46.3,10.7L46.3,-23.4L17.7,-23.4L17.7,-17.1L10.5,-17.1L10.5,-64.1L46.3,-64.1L46.3,-82.1ZM17.7,-30.4L46.3,-30.4L46.3,-57.1L17.7,-57.1L17.7,-30.4ZM53.7,-30.4L82.4,-30.4L82.4,-57.1L53.7,-57.1L53.7,-30.4Z"></path><path transform="translate(100 100)" d="M6.4,-64.8L47.8,-64.8Q43.7,-72.9 37.8,-79.8L45,-82.4Q50.4,-75.6 55.4,-64.8L93.6,-64.8L93.6,-57.6L78,-57.6Q70.6,-33.8 55.9,-17.9Q71.7,-4.5 95.8,4.4L91.9,10.4Q67.1,1.1 50.9,-12.8Q33.8,2.9 8.3,10.3L4.5,4Q29.8,-2.8 45.9,-17.4Q28.6,-34.4 21.8,-57.6L6.4,-57.6L6.4,-64.8ZM28.9,-57.6Q35.3,-37.4 50.9,-22.4Q64.2,-36.9 70.5,-57.6L28.9,-57.6Z"></path><path transform="translate(200 100)" d="M47.1,-12.7Q42.8,-19.5 37.6,-27.1Q32.3,-12.5 24.5,-1.9L19.9,-7.5Q27.7,-18.6 32.8,-33.8Q25.9,-43 18.7,-51.3L23.2,-55.6Q29.2,-49.3 35.1,-41.4Q38,-52.2 39.8,-64L46.4,-62.8Q44,-47.4 40.1,-34.6Q46.7,-25.6 51.9,-17.5L47.1,-12.7ZM76.4,-8.1Q72.1,-15.5 66.3,-24.7Q60.3,-10 52.2,0.5L47.6,-5Q56.1,-16.5 61.6,-31.7Q54.2,-42.6 47.9,-50.3L52.4,-54.6Q58.5,-47.7 64.2,-39.5Q67.3,-49.9 69.5,-63.7L76.3,-62.5Q73.6,-45.9 69.1,-32.4Q75.4,-22.8 81.3,-12.9L76.4,-8.1ZM70.9,9.4L69,2.4L78.6,2.7Q82.8,2.7 82.8,-1.4L82.8,-70.7L17.2,-70.7L17.2,9.8L10.1,9.8L10.1,-77.6L89.9,-77.6L89.9,0.2Q89.9,9.4 81,9.4L70.9,9.4Z"></path><path transform="translate(300 100)" d="M92.4,-71.4L92.4,-49.1L85.2,-49.1L85.2,-64.5L14.8,-64.5L14.8,-49.1L7.6,-49.1L7.6,-71.4L46.9,-71.4Q44.9,-76.6 42.4,-81.1L50.6,-82.5Q52.7,-77.7 54.8,-71.4L92.4,-71.4ZM23,-53.7L76.7,-53.7L76.7,-47Q67.8,-40.7 54.9,-33.6L54.9,-26.9L94.3,-26.9L94.3,-19.9L54.9,-19.9L54.9,1.3Q54.9,9.6 46.2,9.6L33.9,9.6L32.2,3Q39.2,3.2 43.7,3.2Q47.6,3.2 47.6,-1.2L47.6,-19.9L5.8,-19.9L5.8,-26.9L47.6,-26.9L47.6,-36.7Q58.9,-42.6 65.9,-47L23,-47L23,-53.7Z"></path><path transform="translate(400 100)" d="M35.8,-51.7L62.9,-51.7L62.9,-81.8L70.3,-81.8L70.3,-51.7L96,-51.7L96,-44.5L70.3,-44.5L70.3,10.2L62.9,10.2L62.9,-44.5L35.8,-44.5L35.8,-51.7ZM16.2,-80.7Q26.5,-73 33.3,-65.3L28.4,-60.3Q22.2,-67.6 11.2,-75.8L16.2,-80.7ZM4.5,-51.1L26.1,-51.1L26.1,-6.6Q33.1,-12.5 37.9,-17L39.7,-9.6Q30.7,-0.9 19.7,6.4L16.9,-0.1Q19.2,-1.9 19.2,-4.3L19.2,-44.2L4.5,-44.2L4.5,-51.1Z"></path><path transform="translate(500 100)" d="M64.3,-73L71.3,-73L71.3,-10.6L64.3,-10.6L64.3,-73ZM67.7,9.1L66.1,2.2Q74.1,2.7 79.6,2.7Q84.3,2.7 84.3,-2L84.3,-81.4L91.5,-81.4L91.5,-0.2Q91.5,9.1 82.1,9.1L67.7,9.1ZM54.3,-59.4L55.4,-52.4L26.4,-47.9Q27.3,-39.5 28.6,-33.3Q29.9,-27 31.6,-21.8Q40.5,-31.9 46.6,-45.5L52.9,-42.2Q45.4,-25.3 34.4,-13.9Q35.7,-10.7 37.6,-7.2Q43.1,1.6 47.7,1.8Q50.3,1.4 53.3,-13.9L59.4,-10Q57.3,-2.3 54.9,3Q51.9,9.4 48.1,9.4Q41.2,9.4 34.3,-0.2Q31.4,-4.4 29.3,-9Q19.4,-0.7 8.2,4L3.9,-2.5Q16.7,-7.5 26.3,-16.4Q24.3,-21.7 22.6,-28.5Q20.7,-35.7 19.4,-46.8L6.4,-44.8L5.3,-51.8L18.7,-53.9Q17.5,-66.2 17.5,-81.5L24.9,-81.5Q24.9,-66.9 25.8,-55L54.3,-59.4ZM38.1,-82.1Q43.5,-75.5 48.8,-67L42.7,-64Q37.6,-72.6 32.2,-79.2L38.1,-82.1Z"></path><path transform="translate(0 200)" d="M1.7,-71.4L60.2,-71.4L60.2,-64.3L35,-64.3L35,-0L26.9,-0L26.9,-64.3L1.7,-64.3L1.7,-71.4Z"></path><path transform="translate(62 200)" d="M6.2,-72.8L14.2,-72.8L14.2,-43.2Q16.9,-48.2 21.4,-50.7Q25.6,-53.1 30.8,-53.1Q40,-53.1 44.7,-47.8Q49.5,-42.6 49.5,-32.6L49.5,-0L41.5,-0L41.5,-31.4Q41.5,-38.5 38.1,-42.5Q34.5,-46.4 28.1,-46.4Q22.1,-46.4 18.2,-41.6Q14.2,-36.9 14.2,-29.5L14.2,-0L6.2,-0L6.2,-72.8Z"></path><path transform="translate(118 200)" d="M46.3,-44.7Q52,-37.2 52.3,-23.6L11.5,-23.6Q12.1,-14.8 16.2,-10.1Q20.4,-5.3 27.8,-5.3Q34.1,-5.3 38.1,-8.5Q41.3,-11.1 43.3,-16.6L51.3,-16.6Q49.5,-9.2 44.3,-4.4Q37.7,1.4 27.8,1.4Q16.7,1.4 10,-5.9Q3.2,-13.3 3.2,-25.9Q3.2,-37.5 9.7,-45Q16.3,-53.1 27.5,-53.1Q40,-53.1 46.3,-44.7ZM16.6,-41.9Q12.5,-37.5 11.7,-29.8L44,-29.8Q42.5,-46.4 27.7,-46.4Q20.8,-46.4 16.6,-41.9Z"></path><path transform="translate(173 200)" d=""></path><path transform="translate(206 200)" d="M7.2,-71.4L36.4,-71.4Q61,-71.4 61,-50.4Q61,-29.2 36.3,-29.2L15.4,-29.2L15.4,-0L7.2,-0L7.2,-71.4ZM15.4,-64.3L15.4,-36.3L35.9,-36.3Q44.4,-36.3 48.7,-39.8Q52.8,-43.3 52.8,-50.4Q52.8,-57.7 48.6,-60.8Q44.5,-64.3 35.9,-64.3L15.4,-64.3Z"></path><path transform="translate(270 200)" d="M36,-51.9L36,-43.9Q32.4,-45 28.3,-45Q22.2,-45 18.2,-39.7Q14.1,-34.7 14.1,-27.4L14.1,-0L6.2,-0L6.2,-51.7L14.1,-51.7L14.1,-42.7Q16.2,-47.3 19.5,-49.8Q23.6,-53.1 28.9,-53.1Q33.2,-53.1 36,-51.9Z"></path><path transform="translate(306 200)" d="M47.8,-45.1Q54.4,-37.5 54.4,-25.8Q54.4,-14.3 47.9,-6.7Q40.9,1.4 29.3,1.4Q17.7,1.4 10.8,-6.7Q4.2,-14.2 4.2,-25.8Q4.2,-37.5 10.8,-45.1Q17.6,-53.1 29.3,-53.1Q41,-53.1 47.8,-45.1ZM16.5,-40.1Q12.4,-34.5 12.4,-25.8Q12.4,-17.2 16.5,-11.6Q21,-5.3 29.3,-5.3Q37.4,-5.3 42.2,-11.6Q46.3,-17.4 46.3,-25.8Q46.3,-34.3 42.2,-40.1Q37.4,-46.4 29.3,-46.4Q21,-46.4 16.5,-40.1Z"></path><path transform="translate(365 200)" d="M18.2,-69.5Q19.9,-68 19.9,-65.3Q19.9,-62.9 18.2,-61Q16.3,-59.3 13.8,-59.3Q11.4,-59.3 9.5,-61Q7.8,-62.7 7.8,-65.3Q7.8,-68.1 9.5,-69.5Q11.2,-71.2 13.8,-71.2Q16.5,-71.2 18.2,-69.5ZM9.8,-51.7L17.8,-51.7L17.8,6Q17.8,19.8 3.3,19.8L-1.5,19.8L-1.5,13.1L2.7,13.1Q9.8,13.1 9.8,5.7L9.8,-51.7Z"></path><path transform="translate(392 200)" d="M46.3,-44.7Q52,-37.2 52.3,-23.6L11.5,-23.6Q12.1,-14.8 16.2,-10.1Q20.4,-5.3 27.8,-5.3Q34.1,-5.3 38.1,-8.5Q41.3,-11.1 43.3,-16.6L51.3,-16.6Q49.5,-9.2 44.3,-4.4Q37.7,1.4 27.8,1.4Q16.7,1.4 10,-5.9Q3.2,-13.3 3.2,-25.9Q3.2,-37.5 9.7,-45Q16.3,-53.1 27.5,-53.1Q40,-53.1 46.3,-44.7ZM16.6,-41.9Q12.5,-37.5 11.7,-29.8L44,-29.8Q42.5,-46.4 27.7,-46.4Q20.8,-46.4 16.6,-41.9Z"></path><path transform="translate(447 200)" d="M43.9,-48.6Q49.8,-44 51.2,-34.5L43.3,-34.5Q42.3,-40.5 38.5,-43.5Q34.7,-46.4 28.5,-46.4Q21,-46.4 16.6,-40.7Q12.4,-35.2 12.4,-25.7Q12.4,-16.1 16.5,-10.8Q20.6,-5.3 28.4,-5.3Q41.7,-5.3 43.5,-18.7L51.5,-18.7Q49.7,-8.6 43.8,-3.6Q37.9,1.4 28.4,1.4Q16.8,1.4 10.3,-6.4Q4.2,-13.7 4.2,-25.6Q4.2,-37.5 10.3,-44.9Q16.9,-53.1 28.5,-53.1Q38.1,-53.1 43.9,-48.6Z"></path><path transform="translate(502 200)" d="M20,-68.4L20,-51.7L32.8,-51.7L32.8,-45L20,-45L20,-12.1Q20,-9.1 21.1,-8Q22.2,-6.7 24.9,-6.7L31.5,-6.7L31.5,-0L23.7,-0Q17.3,-0 14.6,-3.3Q12.1,-6.2 12.1,-12.1L12.1,-45L1.7,-45L1.7,-51.7L12.1,-51.7L12.1,-65.1L20,-68.4Z"></path><path transform="translate(537 200)" d=""></path><path transform="translate(570 200)" d="M7.2,-71.4L55,-71.4L55,-64.3L15.4,-64.3L15.4,-40.3L52.9,-40.3L52.9,-33.2L15.4,-33.2L15.4,-0L7.2,-0L7.2,-71.4Z"></path><path transform="translate(628 200)" d="M47.8,-45.1Q54.4,-37.5 54.4,-25.8Q54.4,-14.3 47.9,-6.7Q40.9,1.4 29.3,1.4Q17.7,1.4 10.8,-6.7Q4.2,-14.2 4.2,-25.8Q4.2,-37.5 10.8,-45.1Q17.6,-53.1 29.3,-53.1Q41,-53.1 47.8,-45.1ZM16.5,-40.1Q12.4,-34.5 12.4,-25.8Q12.4,-17.2 16.5,-11.6Q21,-5.3 29.3,-5.3Q37.4,-5.3 42.2,-11.6Q46.3,-17.4 46.3,-25.8Q46.3,-34.3 42.2,-40.1Q37.4,-46.4 29.3,-46.4Q21,-46.4 16.5,-40.1Z"></path><path transform="translate(687 200)" d="M36,-51.9L36,-43.9Q32.4,-45 28.3,-45Q22.2,-45 18.2,-39.7Q14.1,-34.7 14.1,-27.4L14.1,-0L6.2,-0L6.2,-51.7L14.1,-51.7L14.1,-42.7Q16.2,-47.3 19.5,-49.8Q23.6,-53.1 28.9,-53.1Q33.2,-53.1 36,-51.9Z"></path><path transform="translate(723 200)" d=""></path><path transform="translate(756 200)" d="M0.5,-71.4L9.7,-71.4L25.4,-11.5L25.8,-11.5L42.1,-71.4L51,-71.4L67.2,-11.5L67.6,-11.5L83.3,-71.4L92.5,-71.4L72,-0L62.9,-0L46.7,-59.5L46.4,-59.5L30.1,-0L21,-0L0.5,-71.4Z"></path><path transform="translate(849 200)" d="M46.3,-44.7Q52,-37.2 52.3,-23.6L11.5,-23.6Q12.1,-14.8 16.2,-10.1Q20.4,-5.3 27.8,-5.3Q34.1,-5.3 38.1,-8.5Q41.3,-11.1 43.3,-16.6L51.3,-16.6Q49.5,-9.2 44.3,-4.4Q37.7,1.4 27.8,1.4Q16.7,1.4 10,-5.9Q3.2,-13.3 3.2,-25.9Q3.2,-37.5 9.7,-45Q16.3,-53.1 27.5,-53.1Q40,-53.1 46.3,-44.7ZM16.6,-41.9Q12.5,-37.5 11.7,-29.8L44,-29.8Q42.5,-46.4 27.7,-46.4Q20.8,-46.4 16.6,-41.9Z"></path><path transform="translate(904 200)" d="M6.2,-72.8L14.2,-72.8L14.2,-42.2Q20.2,-53.1 31.3,-53.1Q42.4,-53.1 48.6,-44.8Q54.4,-37.2 54.4,-26Q54.4,-14.4 48.6,-6.8Q42.1,1.4 30.9,1.4Q19,1.4 13.7,-8.5L13.7,-0L6.2,-0L6.2,-72.8ZM18.3,-40.9Q13.9,-35.5 13.9,-26.3L13.9,-25.3Q13.9,-16.6 17.8,-11.2Q22,-5.2 29.9,-5.2Q38.2,-5.2 42.5,-11.3Q46.2,-16.9 46.2,-26Q46.2,-35.3 42.3,-40.5Q38,-46.5 29.6,-46.5Q22.4,-46.5 18.3,-40.9Z"></path></svg>