<svg  xmlns="http://www.w3.org/2000/svg" xmlns:xlink="http://www.w3.org/1999/xlink" width="940" height="200" viewBox="0 0 964 224"><path transform="translate(0 100)" d="M48.2,-81.6L51.8,-81.6L51.8,-62.5L88.2,-62.5L88.2,-17.6L84.7,-17.6L84.7,-24.8L51.8,-24.8L51.8,10.2L48.2,10.2L48.2,-24.8L15.4,-24.8L15.4,-17.6L11.9,-17.6L11.9,-62.5L48.2,-62.5L48.2,-81.6ZM15.4,-28.2L48.2,-28.2L48.2,-59.1L15.4,-59.1L15.4,-28.2ZM51.8,-28.2L84.7,-28.2L84.7,-59.1L51.8,-59.1L51.8,-28.2Z"></path><path transform="translate(100 100)" d="M7.3,-62.9L50.6,-62.9Q46.5,-72 39.8,-80.2L43.2,-81.5Q49.3,-73.7 54.2,-62.9L92.7,-62.9L92.7,-59.5L76.5,-59.5Q69.1,-33.9 53.4,-17.4Q69.9,-2.6 95.1,6.8L93.3,9.7Q67.6,-0 51.1,-15Q33.5,2.1 6.9,9.9L5.1,6.9Q31.9,-0.6 48.7,-17.1Q30.3,-34.6 23,-59.5L7.3,-59.5L7.3,-62.9ZM26.5,-59.5Q33.6,-36 51,-19.5Q66.5,-35.9 73,-59.5L26.5,-59.5Z"></path><path transform="translate(200 100)" d="M48.8,-12.6Q42.5,-22.3 36.6,-30.5Q30.7,-14.3 21.8,-2.7L19.5,-5.3Q28.5,-17.5 34.2,-33.8Q25.7,-45.2 18.8,-52.7L21,-54.9Q27.5,-48.1 35.5,-37.5Q39.3,-49.4 41.6,-64.1L44.8,-63.5Q42.1,-47.4 37.9,-34.3Q43.9,-26 51.1,-14.9L48.8,-12.6ZM78.9,-8.2Q70.9,-21.3 66.2,-28.4Q59.8,-11.9 50.4,-0.3L48.2,-2.8Q57.8,-15.1 64,-31.7Q55.3,-44.4 48.6,-51.9L51,-54.1Q57.8,-46.3 65.3,-35.5Q69.8,-48.9 72.1,-63.8L75.4,-63.2Q72.4,-45.9 67.6,-32.1Q73.6,-23.2 81.2,-10.5L78.9,-8.2ZM71,8.9L70.1,5.5L80.2,5.7Q85,5.7 85,0.6L85,-72.8L15,-72.8L15,9.1L11.5,9.1L11.5,-76.2L88.5,-76.2L88.5,1.4Q88.5,8.9 81.3,8.9L71,8.9Z"></path><path transform="translate(300 100)" d="M91.5,-69.8L91.5,-49.4L88.1,-49.4L88.1,-66.4L11.9,-66.4L11.9,-49.4L8.5,-49.4L8.5,-69.8L49.6,-69.8Q47.4,-76.4 45.1,-81L48.7,-81.7Q51,-76.6 53.2,-69.8L91.5,-69.8ZM23.5,-52.6L76.1,-52.6L76.1,-49.4Q65.9,-42.2 52.9,-35.4L52.9,-25.7L93.8,-25.7L93.8,-22.4L52.9,-22.4L52.9,2.7Q52.9,9.1 46.3,9.1L34,9.1L33.2,5.8L45,5.9Q49.6,5.9 49.6,1.5L49.6,-22.4L6.3,-22.4L6.3,-25.7L49.6,-25.7L49.6,-37.1Q64.9,-45.1 70.7,-49.4L23.5,-49.4L23.5,-52.6Z"></path><path transform="translate(400 100)" d="M36.3,-49.8L64.8,-49.8L64.8,-81.3L68.4,-81.3L68.4,-49.8L95.5,-49.8L95.5,-46.4L68.4,-46.4L68.4,9.7L64.8,9.7L64.8,-46.4L36.3,-46.4L36.3,-49.8ZM14.4,-79.9Q24.9,-72 32.5,-63.5L30.2,-61.1Q23.4,-68.8 12,-77.6L14.4,-79.9ZM5.1,-49.4L24.3,-49.4L24.3,-1.7Q31,-6.9 38.9,-14.5L39.7,-10.9Q30.9,-2.1 20.7,4.8L19.3,1.8Q21,0.3 21,-1.1L21,-46L5.1,-46L5.1,-49.4Z"></path><path transform="translate(500 100)" d="M66.1,-72.5L69.5,-72.5L69.5,-9.2L66.1,-9.2L66.1,-72.5ZM67.6,8.6L66.9,5.3Q74.1,5.6 80.8,5.6Q86.2,5.6 86.2,-0.1L86.2,-80.9L89.6,-80.9L89.6,0.8Q89.6,8.6 82,8.6L67.6,8.6ZM54.2,-57.6L54.7,-54.2L24.3,-49.4Q25.3,-39.4 27.2,-31Q28.9,-23.6 30.9,-18Q41.3,-29.1 48.3,-44.8L51.4,-43.1Q43.6,-25.9 32.2,-14.3Q34.6,-7.9 37.1,-3.9Q43.2,5.4 48.3,5.5Q51.5,4.9 55.3,-12.5L58.1,-10.6Q56.2,-2.4 54.3,2.5Q51.7,8.9 48.4,8.9Q42,8.9 35.4,-0.6Q32.2,-5 29.6,-11.7Q19.3,-2.3 6.4,3.1L4.4,-0Q18.1,-5.5 28.2,-15.3Q26.2,-21.1 24.3,-28.6Q22.2,-37.4 21,-48.9L6.5,-46.6L6,-50L20.7,-52.3Q19.5,-65.1 19.5,-81L22.9,-81Q22.9,-64.4 24,-52.8L54.2,-57.6ZM36.2,-81.6Q42.2,-74.4 47.3,-66L44.3,-64.5Q39.2,-73.2 33.3,-80.1L36.2,-81.6Z"></path><path transform="translate(0 200)" d="M1.9,-71.4L60.4,-71.4L60.4,-67.8L33.2,-67.8L33.2,-0L29.3,-0L29.3,-67.8L1.9,-67.8L1.9,-71.4Z"></path><path transform="translate(62 200)" d="M6.4,-72.8L10.3,-72.8L10.3,-41.3Q13,-46.8 17.7,-50Q22.1,-53.1 27.9,-53.1Q36.5,-53.1 41.6,-48Q46.7,-42.8 46.7,-33.3L46.7,-0L42.9,-0L42.9,-33Q42.9,-40.9 38.6,-45.4Q34.4,-49.6 27.2,-49.6Q20.3,-49.6 15.4,-44Q10.3,-38.3 10.3,-30.2L10.3,-0L6.4,-0L6.4,-72.8Z"></path><path transform="translate(115 200)" d="M44.9,-44.9Q50,-37.9 50.6,-24.6L7.4,-24.6Q7.7,-14.2 12.9,-8.3Q18.3,-2.1 27,-2.1Q34.7,-2.1 39.6,-6.4Q43.6,-10.1 45.4,-16.6L49.5,-16.6Q47.7,-9.1 42.7,-4.2Q36.5,1.4 27,1.4Q16.2,1.4 9.9,-6.1Q3.4,-13.6 3.4,-25.9Q3.4,-37.2 9.6,-44.9Q16.2,-53.1 26.9,-53.1Q38.9,-53.1 44.9,-44.9ZM13.2,-43.5Q8,-37.4 7.4,-28L46.6,-28Q45,-49.6 27,-49.6Q18.4,-49.6 13.2,-43.5Z"></path><path transform="translate(169 200)" d=""></path><path transform="translate(202 200)" d="M7.4,-71.4L36.2,-71.4Q59.1,-71.4 59.1,-51.5Q59.1,-31.4 36.1,-31.4L11.3,-31.4L11.3,-0L7.4,-0L7.4,-71.4ZM11.3,-67.8L11.3,-35L36,-35Q45.7,-35 50.6,-39.3Q55.2,-43.4 55.2,-51.5Q55.2,-59.6 50.6,-63.6Q45.8,-67.8 36,-67.8L11.3,-67.8Z"></path><path transform="translate(265 200)" d="M35,-52.1L35,-48Q30.8,-49.2 26.8,-49.2Q18.9,-49.2 14.3,-41.9Q10.3,-35.7 10.3,-27.3L10.3,-0L6.4,-0L6.4,-51.7L10.3,-51.7L10.3,-40.9Q12.2,-45.9 16.3,-49.2Q21,-53.1 27,-53.1Q32.1,-53.1 35,-52.1Z"></path><path transform="translate(300 200)" d="M46.5,-44.6Q52.6,-37 52.6,-25.8Q52.6,-14.9 46.5,-7Q39.8,1.4 28.5,1.4Q17.1,1.4 10.5,-7Q4.4,-14.7 4.4,-25.8Q4.4,-37.2 10.5,-44.6Q17.1,-53.1 28.5,-53.1Q39.8,-53.1 46.5,-44.6ZM13.4,-42.3Q8.3,-35.7 8.3,-25.8Q8.3,-16 13.4,-9.4Q19,-2.1 28.5,-2.1Q37.8,-2.1 43.6,-9.4Q48.7,-16 48.7,-25.8Q48.7,-35.7 43.6,-42.3Q37.9,-49.6 28.5,-49.6Q18.9,-49.6 13.4,-42.3Z"></path><path transform="translate(357 200)" d="M16.7,-68.1Q17.8,-67 17.8,-65.3Q17.8,-63.8 16.7,-62.5Q15.5,-61.3 13.8,-61.3Q12.1,-61.3 10.9,-62.5Q9.8,-63.6 9.8,-65.3Q9.8,-67.1 10.9,-68.1Q12.1,-69.3 13.8,-69.3Q15.5,-69.3 16.7,-68.1ZM11.9,-51.7L15.7,-51.7L15.7,7.6Q15.7,19.8 3.2,19.8L-1.5,19.8L-1.5,16.3L3.1,16.3Q11.9,16.3 11.9,7.5L11.9,-51.7Z"></path><path transform="translate(382 200)" d="M44.9,-44.9Q50,-37.9 50.6,-24.6L7.4,-24.6Q7.7,-14.2 12.9,-8.3Q18.3,-2.1 27,-2.1Q34.7,-2.1 39.6,-6.4Q43.6,-10.1 45.4,-16.6L49.5,-16.6Q47.7,-9.1 42.7,-4.2Q36.5,1.4 27,1.4Q16.2,1.4 9.9,-6.1Q3.4,-13.6 3.4,-25.9Q3.4,-37.2 9.6,-44.9Q16.2,-53.1 26.9,-53.1Q38.9,-53.1 44.9,-44.9ZM13.2,-43.5Q8,-37.4 7.4,-28L46.6,-28Q45,-49.6 27,-49.6Q18.4,-49.6 13.2,-43.5Z"></path><path transform="translate(436 200)" d="M42.3,-48.6Q48,-44.1 49.2,-35L45.4,-35Q44.4,-42.2 39.8,-45.9Q35.1,-49.6 27.7,-49.6Q18.8,-49.6 13.4,-42.6Q8.3,-36 8.3,-25.3Q8.3,-14.8 13.2,-8.6Q18.2,-2.1 27.6,-2.1Q43,-2.1 45.7,-18.2L49.5,-18.2Q48,-8.7 42.3,-3.6Q36.5,1.4 27.6,1.4Q16.3,1.4 10.1,-6.4Q4.4,-13.6 4.4,-25.3Q4.4,-37.2 10.4,-44.8Q16.6,-53.1 27.7,-53.1Q36.6,-53.1 42.3,-48.6Z"></path><path transform="translate(489 200)" d="M17.4,-68.4L17.4,-51.7L31.7,-51.7L31.7,-48.2L17.4,-48.2L17.4,-10.9Q17.4,-6.7 18.8,-5.2Q20,-3.5 24,-3.5L30.5,-3.5L30.5,-0L23.7,-0Q17.9,-0 15.6,-2.9Q13.6,-5.5 13.6,-10.9L13.6,-48.2L1.9,-48.2L1.9,-51.7L13.6,-51.7L13.6,-66.7L17.4,-68.4Z"></path><path transform="translate(524 200)" d=""></path><path transform="translate(557 200)" d="M7.4,-71.4L54.1,-71.4L54.1,-67.8L11.3,-67.8L11.3,-38.7L52,-38.7L52,-35.1L11.3,-35.1L11.3,-0L7.4,-0L7.4,-71.4Z"></path><path transform="translate(614 200)" d="M46.5,-44.6Q52.6,-37 52.6,-25.8Q52.6,-14.9 46.5,-7Q39.8,1.4 28.5,1.4Q17.1,1.4 10.5,-7Q4.4,-14.7 4.4,-25.8Q4.4,-37.2 10.5,-44.6Q17.1,-53.1 28.5,-53.1Q39.8,-53.1 46.5,-44.6ZM13.4,-42.3Q8.3,-35.7 8.3,-25.8Q8.3,-16 13.4,-9.4Q19,-2.1 28.5,-2.1Q37.8,-2.1 43.6,-9.4Q48.7,-16 48.7,-25.8Q48.7,-35.7 43.6,-42.3Q37.9,-49.6 28.5,-49.6Q18.9,-49.6 13.4,-42.3Z"></path><path transform="translate(671 200)" d="M35,-52.1L35,-48Q30.8,-49.2 26.8,-49.2Q18.9,-49.2 14.3,-41.9Q10.3,-35.7 10.3,-27.3L10.3,-0L6.4,-0L6.4,-51.7L10.3,-51.7L10.3,-40.9Q12.2,-45.9 16.3,-49.2Q21,-53.1 27,-53.1Q32.1,-53.1 35,-52.1Z"></path><path transform="translate(706 200)" d=""></path><path transform="translate(739 200)" d="M0.5,-71.4L4.9,-71.4L23.4,-4.7L23.7,-4.7L42.6,-71.4L47.7,-71.4L66.5,-4.7L66.9,-4.7L85.4,-71.4L89.8,-71.4L69.2,-0L64.2,-0L45.3,-66.5L45,-66.5L26,-0L21,-0L0.5,-71.4Z"></path><path transform="translate(829 200)" d="M44.9,-44.9Q50,-37.9 50.6,-24.6L7.4,-24.6Q7.7,-14.2 12.9,-8.3Q18.3,-2.1 27,-2.1Q34.7,-2.1 39.6,-6.4Q43.6,-10.1 45.4,-16.6L49.5,-16.6Q47.7,-9.1 42.7,-4.2Q36.5,1.4 27,1.4Q16.2,1.4 9.9,-6.1Q3.4,-13.6 3.4,-25.9Q3.4,-37.2 9.6,-44.9Q16.2,-53.1 26.9,-53.1Q38.9,-53.1 44.9,-44.9ZM13.2,-43.5Q8,-37.4 7.4,-28L46.6,-28Q45,-49.6 27,-49.6Q18.4,-49.6 13.2,-43.5Z"></path><path transform="translate(883 200)" d="M6.4,-72.8L10.3,-72.8L10.3,-39.2Q15.7,-53.1 29.4,-53.1Q40.2,-53.1 46.5,-44.7Q52.2,-37.2 52.2,-25.8Q52.2,-14.5 46.6,-6.9Q40.3,1.4 29.3,1.4Q15.4,1.4 10.1,-12.1L10.1,-0L6.4,-0L6.4,-72.8ZM15,-42.8Q10.2,-36.4 10.2,-26.3L10.2,-25Q10.2,-15.1 14.9,-8.9Q19.9,-2.1 29.1,-2.1Q38.3,-2.1 43.6,-9.1Q48.3,-15.6 48.3,-25.8Q48.3,-36.2 43.5,-42.5Q38.3,-49.6 29,-49.6Q20,-49.6 15,-42.8Z"></path></svg>