<svg  xmlns="http://www.w3.org/2000/svg" xmlns:xlink="http://www.w3.org/1999/xlink" width="953" height="200" viewBox="0 0 977 224"><path transform="translate(0 100)" d="M47.2,-81.9L52.8,-81.9L52.8,-63.4L89,-63.4L89,-17.4L83.5,-17.4L83.5,-24.1L52.8,-24.1L52.8,10.5L47.2,10.5L47.2,-24.1L16.6,-24.1L16.6,-17.4L11.1,-17.4L11.1,-63.4L47.2,-63.4L47.2,-81.9ZM16.6,-29.4L47.2,-29.4L47.2,-58L16.6,-58L16.6,-29.4ZM52.8,-29.4L83.5,-29.4L83.5,-58L52.8,-58L52.8,-29.4Z"></path><path transform="translate(100 100)" d="M6.9,-63.9L49.1,-63.9Q45.1,-72.5 38.8,-80L44.2,-82Q50.1,-74.5 54.9,-63.9L93.1,-63.9L93.1,-58.5L77.2,-58.5Q70,-33.9 54.7,-17.7Q71.3,-3.4 95.5,5.5L92.5,10.1Q67.6,0.9 50.9,-13.8Q33.8,2.6 7.6,10.1L4.8,5.3Q30.7,-1.9 47.2,-17.2Q29.2,-34.7 22.4,-58.5L6.9,-58.5L6.9,-63.9ZM27.7,-58.5Q34.4,-36.8 51,-21Q65.3,-36.3 71.7,-58.5L27.7,-58.5Z"></path><path transform="translate(200 100)" d="M47.9,-12.7Q42.6,-20.9 37.1,-28.7Q31.5,-13.5 23.2,-2.2L19.7,-6.4Q28.1,-18.1 33.5,-33.8Q25.4,-44.6 18.8,-51.9L22.2,-55.3Q28.3,-48.9 35.3,-39.5Q38.4,-50.1 40.6,-64.1L45.7,-63.2Q43.2,-47.3 39.1,-34.4Q44.5,-27.1 51.5,-16.2L47.9,-12.7ZM77.6,-8.1Q72.3,-17 66.3,-26.4Q60.1,-11 51.3,0.2L47.9,-4Q56.7,-15.5 62.7,-31.7Q55.2,-42.7 48.2,-51L51.7,-54.4Q58.3,-46.8 64.7,-37.5Q68.5,-49.2 70.8,-63.8L75.9,-62.9Q73.1,-46 68.4,-32.1Q74.8,-22.4 81.2,-11.7L77.6,-8.1ZM70.9,9.1L69.5,3.8L79.4,4.1Q83.8,4.1 83.8,-0.4L83.8,-71.7L16.2,-71.7L16.2,9.5L10.8,9.5L10.8,-77L89.2,-77L89.2,0.8Q89.2,9.1 81.1,9.1L70.9,9.1Z"></path><path transform="translate(300 100)" d="M92,-70.6L92,-49.2L86.5,-49.2L86.5,-65.4L13.5,-65.4L13.5,-49.2L8,-49.2L8,-70.6L48.2,-70.6Q46.3,-76.5 43.7,-81.1L49.7,-82.1Q51.8,-77.6 54.1,-70.6L92,-70.6ZM23.3,-53.2L76.4,-53.2L76.4,-48.2Q66.1,-40.9 53.9,-34.5L53.9,-26.3L94,-26.3L94,-21.1L53.9,-21.1L53.9,1.9Q53.9,9.4 46.2,9.4L34,9.4L32.6,4.3Q39.8,4.5 44.3,4.5Q48.6,4.5 48.6,0.1L48.6,-21.1L6.1,-21.1L6.1,-26.3L48.6,-26.3L48.6,-36.9Q61.9,-43.8 68.4,-48.2L23.3,-48.2L23.3,-53.2Z"></path><path transform="translate(400 100)" d="M36.1,-50.8L63.8,-50.8L63.8,-81.6L69.4,-81.6L69.4,-50.8L95.8,-50.8L95.8,-45.4L69.4,-45.4L69.4,10L63.8,10L63.8,-45.4L36.1,-45.4L36.1,-50.8ZM15.4,-80.4Q25.6,-72.6 32.9,-64.5L29.2,-60.7Q22.3,-68.5 11.5,-76.7L15.4,-80.4ZM4.7,-50.3L25.3,-50.3L25.3,-4.3Q31.3,-9.1 38.3,-15.8L39.7,-10.2Q30.5,-1.2 20.2,5.6L18.1,0.8Q20,-1.1 20,-2.8L20,-45L4.7,-45L4.7,-50.3Z"></path><path transform="translate(500 100)" d="M65.1,-72.7L70.4,-72.7L70.4,-10L65.1,-10L65.1,-72.7ZM67.7,8.8L66.5,3.7Q73.7,4 80.2,4Q85.2,4 85.2,-1.1L85.2,-81.1L90.6,-81.1L90.6,0.3Q90.6,8.8 82.1,8.8L67.7,8.8ZM54.2,-58.5L55.1,-53.3L25.4,-48.7Q26.3,-39.9 28,-32.2Q29.5,-25.3 31.3,-20Q40.8,-30.4 47.4,-45.1L52.2,-42.6Q44.6,-25.7 33.4,-14.2Q35.1,-9.6 37.4,-5.6Q43.3,3.5 47.9,3.6Q51,3 54.3,-13.3L58.8,-10.2Q56.9,-2.7 54.6,2.8Q51.9,9.1 48.2,9.1Q41.6,9.1 34.8,-0.4Q31.9,-4.5 29.4,-10.4Q19.6,-1.6 7.3,3.6L4.2,-1.3Q17.2,-6.4 27.2,-15.9Q25.5,-20.7 23.4,-28.5Q21.2,-37 20.2,-47.9L6.4,-45.7L5.7,-50.9L19.7,-53.1Q18.5,-65.6 18.5,-81.2L23.9,-81.2Q23.9,-65.5 24.9,-53.9L54.2,-58.5ZM37.2,-81.8Q42.8,-75.3 48.1,-66.6L43.4,-64.2Q38.2,-73.1 32.7,-79.6L37.2,-81.8Z"></path><path transform="translate(0 200)" d="M1.8,-71.4L60.3,-71.4L60.3,-66L34.1,-66L34.1,-0L28,-0L28,-66L1.8,-66L1.8,-71.4Z"></path><path transform="translate(62 200)" d="M6.3,-72.8L12.4,-72.8L12.4,-42.3Q15.1,-47.6 19.6,-50.4Q24,-53.1 29.4,-53.1Q38.3,-53.1 43.2,-47.9Q48.2,-42.6 48.2,-33L48.2,-0L42.2,-0L42.2,-32.2Q42.2,-39.6 38.4,-43.9Q34.5,-47.9 27.7,-47.9Q21.3,-47.9 16.8,-42.7Q12.4,-37.7 12.4,-29.9L12.4,-0L6.3,-0L6.3,-72.8Z"></path><path transform="translate(116 200)" d="M45.6,-44.8Q51.1,-37.4 51.5,-24.1L9.5,-24.1Q10,-14.6 14.6,-9.2Q19.4,-3.8 27.4,-3.8Q34.3,-3.8 38.8,-7.5Q42.4,-10.6 44.3,-16.6L50.4,-16.6Q48.6,-9.1 43.5,-4.3Q37.2,1.4 27.4,1.4Q16.5,1.4 10,-6Q3.3,-13.4 3.3,-25.9Q3.3,-37.3 9.7,-45Q16.3,-53.1 27.2,-53.1Q39.5,-53.1 45.6,-44.8ZM15,-42.6Q10.3,-37.3 9.6,-29L45.2,-29Q43.7,-47.9 27.3,-47.9Q19.6,-47.9 15,-42.6Z"></path><path transform="translate(171 200)" d=""></path><path transform="translate(204 200)" d="M7.3,-71.4L36.3,-71.4Q60.1,-71.4 60.1,-50.9Q60.1,-30.3 36.2,-30.3L13.4,-30.3L13.4,-0L7.3,-0L7.3,-71.4ZM13.4,-66L13.4,-35.7L35.9,-35.7Q45,-35.7 49.6,-39.5Q53.9,-43.3 53.9,-50.9Q53.9,-58.4 49.6,-62.1Q45.1,-66 35.9,-66L13.4,-66Z"></path><path transform="translate(267 200)" d="M35.5,-52L35.5,-45.9Q31.8,-47 27.6,-47Q20.5,-47 16.4,-40.8Q12.3,-35.2 12.3,-27.3L12.3,-0L6.3,-0L6.3,-51.7L12.3,-51.7L12.3,-41.8Q14.4,-46.7 18,-49.5Q22.2,-53.1 28,-53.1Q32.8,-53.1 35.5,-52Z"></path><path transform="translate(303 200)" d="M47.2,-44.9Q53.5,-37.3 53.5,-25.8Q53.5,-14.5 47.2,-6.8Q40.2,1.4 28.9,1.4Q17.6,1.4 10.6,-6.8Q4.3,-14.5 4.3,-25.8Q4.3,-37.3 10.7,-44.9Q17.4,-53.1 28.9,-53.1Q40.3,-53.1 47.2,-44.9ZM15,-41.1Q10.4,-35.2 10.4,-25.8Q10.4,-16.5 15,-10.6Q20.1,-3.8 28.9,-3.8Q37.8,-3.8 42.9,-10.6Q47.5,-16.9 47.5,-25.8Q47.5,-35 42.9,-41.1Q37.9,-47.9 28.9,-47.9Q20,-47.9 15,-41.1Z"></path><path transform="translate(361 200)" d="M17.5,-68.8Q18.9,-67.6 18.9,-65.3Q18.9,-63.3 17.5,-61.7Q15.9,-60.3 13.8,-60.3Q11.8,-60.3 10.2,-61.7Q8.7,-63.2 8.7,-65.3Q8.7,-67.6 10.2,-68.8Q11.7,-70.3 13.8,-70.3Q16,-70.3 17.5,-68.8ZM10.8,-51.7L16.8,-51.7L16.8,6.7Q16.8,19.8 3.3,19.8L-1.5,19.8L-1.5,14.6L2.9,14.6Q10.8,14.6 10.8,6.5L10.8,-51.7Z"></path><path transform="translate(387 200)" d="M45.6,-44.8Q51.1,-37.4 51.5,-24.1L9.5,-24.1Q10,-14.6 14.6,-9.2Q19.4,-3.8 27.4,-3.8Q34.3,-3.8 38.8,-7.5Q42.4,-10.6 44.3,-16.6L50.4,-16.6Q48.6,-9.1 43.5,-4.3Q37.2,1.4 27.4,1.4Q16.5,1.4 10,-6Q3.3,-13.4 3.3,-25.9Q3.3,-37.3 9.7,-45Q16.3,-53.1 27.2,-53.1Q39.5,-53.1 45.6,-44.8ZM15,-42.6Q10.3,-37.3 9.6,-29L45.2,-29Q43.7,-47.9 27.3,-47.9Q19.6,-47.9 15,-42.6Z"></path><path transform="translate(442 200)" d="M43.2,-48.6Q49.1,-44.1 50.3,-34.8L44.3,-34.8Q43.3,-41.3 39.1,-44.6Q34.9,-47.9 28.1,-47.9Q19.9,-47.9 15.1,-41.6Q10.4,-35.7 10.4,-25.5Q10.4,-15.6 14.9,-9.7Q19.4,-3.8 28,-3.8Q42.4,-3.8 44.6,-18.5L50.5,-18.5Q49,-8.7 43.1,-3.6Q37.3,1.4 28,1.4Q16.5,1.4 10.2,-6.4Q4.3,-13.5 4.3,-25.5Q4.3,-37.3 10.4,-44.9Q16.8,-53.1 28.1,-53.1Q37.4,-53.1 43.2,-48.6Z"></path><path transform="translate(496 200)" d="M18.8,-68.4L18.8,-51.7L32.3,-51.7L32.3,-46.5L18.8,-46.5L18.8,-11.5Q18.8,-8.1 20,-6.6Q21.2,-5.2 24.5,-5.2L31,-5.2L31,-0L23.7,-0Q17.7,-0 15.1,-3.1Q12.8,-5.7 12.8,-11.5L12.8,-46.5L1.8,-46.5L1.8,-51.7L12.8,-51.7L12.8,-65.9L18.8,-68.4Z"></path><path transform="translate(531 200)" d=""></path><path transform="translate(564 200)" d="M7.3,-71.4L54.6,-71.4L54.6,-66L13.4,-66L13.4,-39.5L52.5,-39.5L52.5,-34.1L13.4,-34.1L13.4,-0L7.3,-0L7.3,-71.4Z"></path><path transform="translate(621 200)" d="M47.2,-44.9Q53.5,-37.3 53.5,-25.8Q53.5,-14.5 47.2,-6.8Q40.2,1.4 28.9,1.4Q17.6,1.4 10.6,-6.8Q4.3,-14.5 4.3,-25.8Q4.3,-37.3 10.7,-44.9Q17.4,-53.1 28.9,-53.1Q40.3,-53.1 47.2,-44.9ZM15,-41.1Q10.4,-35.2 10.4,-25.8Q10.4,-16.5 15,-10.6Q20.1,-3.8 28.9,-3.8Q37.8,-3.8 42.9,-10.6Q47.5,-16.9 47.5,-25.8Q47.5,-35 42.9,-41.1Q37.9,-47.9 28.9,-47.9Q20,-47.9 15,-41.1Z"></path><path transform="translate(679 200)" d="M35.5,-52L35.5,-45.9Q31.8,-47 27.6,-47Q20.5,-47 16.4,-40.8Q12.3,-35.2 12.3,-27.3L12.3,-0L6.3,-0L6.3,-51.7L12.3,-51.7L12.3,-41.8Q14.4,-46.7 18,-49.5Q22.2,-53.1 28,-53.1Q32.8,-53.1 35.5,-52Z"></path><path transform="translate(715 200)" d=""></path><path transform="translate(748 200)" d="M0.5,-71.4L7.4,-71.4L24.5,-8.2L24.8,-8.2L42.3,-71.4L49.4,-71.4L66.9,-8.2L67.2,-8.2L84.3,-71.4L91.2,-71.4L70.7,-0L63.5,-0L46,-62.8L45.7,-62.8L28.2,-0L21,-0L0.5,-71.4Z"></path><path transform="translate(840 200)" d="M45.6,-44.8Q51.1,-37.4 51.5,-24.1L9.5,-24.1Q10,-14.6 14.6,-9.2Q19.4,-3.8 27.4,-3.8Q34.3,-3.8 38.8,-7.5Q42.4,-10.6 44.3,-16.6L50.4,-16.6Q48.6,-9.1 43.5,-4.3Q37.2,1.4 27.4,1.4Q16.5,1.4 10,-6Q3.3,-13.4 3.3,-25.9Q3.3,-37.3 9.7,-45Q16.3,-53.1 27.2,-53.1Q39.5,-53.1 45.6,-44.8ZM15,-42.6Q10.3,-37.3 9.6,-29L45.2,-29Q43.7,-47.9 27.3,-47.9Q19.6,-47.9 15,-42.6Z"></path><path transform="translate(895 200)" d="M6.3,-72.8L12.3,-72.8L12.3,-40.8Q18,-53.1 30.4,-53.1Q41.4,-53.1 47.6,-44.8Q53.3,-37.3 53.3,-25.9Q53.3,-14.3 47.6,-6.8Q41.2,1.4 30.2,1.4Q17.3,1.4 12,-10.2L12,-0L6.3,-0L6.3,-72.8ZM16.7,-41.8Q12.1,-35.9 12.1,-26.3L12.1,-25.1Q12.1,-15.9 16.4,-10.1Q21,-3.7 29.5,-3.7Q38.2,-3.7 43,-10.3Q47.2,-16.2 47.2,-25.9Q47.2,-35.6 42.9,-41.4Q38.1,-48 29.3,-48Q21.3,-48 16.7,-41.8Z"></path></svg>