<svg  xmlns="http://www.w3.org/2000/svg" xmlns:xlink="http://www.w3.org/1999/xlink" width="981" height="200" viewBox="0 0 1005 224"><path transform="translate(0 100)" d="M44.6,-82.6L55.4,-82.6L55.4,-65.5L90.9,-65.5L90.9,-16.7L80.4,-16.7L80.4,-22.2L55.4,-22.2L55.4,11.2L44.6,11.2L44.6,-22.2L19.7,-22.2L19.7,-16.7L9.2,-16.7L9.2,-65.5L44.6,-65.5L44.6,-82.6ZM19.7,-32.4L44.6,-32.4L44.6,-55.3L19.7,-55.3L19.7,-32.4ZM55.4,-32.4L80.4,-32.4L80.4,-55.3L55.4,-55.3L55.4,-32.4Z"></path><path transform="translate(100 100)" d="M5.7,-66.4L45.3,-66.4Q41.7,-73 36.1,-79.4L46.6,-83.2Q52,-76.2 56.5,-66.4L94.3,-66.4L94.3,-56L79.2,-56Q72,-33.6 58.2,-18.4Q73.4,-6.3 96.5,2.2L90.7,11.1Q66.7,2.1 50.8,-11.1Q33.9,3.8 9.5,10.7L3.9,1.5Q27.9,-4.7 43.4,-17.8Q27.2,-34.3 20.9,-56L5.7,-56L5.7,-66.4ZM30.9,-56Q37,-38.4 50.8,-24.9Q62.6,-37.9 68.4,-56L30.9,-56Z"></path><path transform="translate(200 100)" d="M45.7,-12.8Q42.1,-18.5 38.5,-23.9Q33.6,-10.7 26.8,-1.1L20.2,-9.3Q27,-19.7 31.6,-33.7Q26.1,-41.1 19.2,-49.5L19.2,10.5L8.9,10.5L8.9,-78.9L91.1,-78.9L91.1,-0.7Q91.1,9.8 80.7,9.8L70.7,9.8L68.1,-0.3L77.3,0.2Q80.8,0.2 80.8,-3.1L80.8,-14.4L74.3,-7.9Q69.6,-16.2 66.3,-21.4Q61,-8.4 53.7,1.3L47.1,-6.9Q54.7,-17.8 59.7,-31.7Q54.4,-39.6 47.2,-48.9L53.6,-55.1Q58.7,-49.2 63.1,-42.9Q65.7,-52.7 67.3,-63.6L77.1,-61.9Q74.6,-45.8 70.3,-32.4Q75.1,-25.2 80.8,-15.7L80.8,-68.9L19.2,-68.9L19.2,-50.6L25.1,-56.3Q29.6,-51.5 34.7,-44.9Q36.9,-54.3 38.2,-63.9L47.8,-62.2Q45.6,-47.4 42.1,-35Q47.2,-28.1 52.6,-19.7L45.7,-12.8Z"></path><path transform="translate(300 100)" d="M93.2,-72.7L93.2,-48.8L82.7,-48.8L82.7,-62.8L17.3,-62.8L17.3,-48.8L6.8,-48.8L6.8,-72.7L44.5,-72.7Q41.9,-78.3 40.1,-81.2L52.2,-83.2Q54.6,-77.9 56.2,-72.7L93.2,-72.7ZM22.6,-54.6L77.3,-54.6L77.3,-45Q68.4,-38.6 56.5,-32.1L56.5,-27.8L94.7,-27.8L94.7,-17.8L56.5,-17.8L56.5,-0Q56.5,10.1 46.1,10.1L33.8,10.1L31.3,0.6Q36.4,0.9 42.6,0.9Q46,0.9 46,-3.5L46,-17.8L5.4,-17.8L5.4,-27.8L46,-27.8L46,-36.3Q56.2,-41.6 61.8,-45L22.6,-45L22.6,-54.6Z"></path><path transform="translate(400 100)" d="M35.4,-53.3L61.2,-53.3L61.2,-82.3L72,-82.3L72,-53.3L96.5,-53.3L96.5,-42.9L72,-42.9L72,10.7L61.2,10.7L61.2,-42.9L35.4,-42.9L35.4,-53.3ZM17.8,-81.5Q27.1,-74.3 34,-66.9L26.8,-59.6Q21.2,-66.4 10.4,-74.3L17.8,-81.5ZM3.9,-52.6L27.7,-52.6L27.7,-10.8Q32.1,-14.6 37,-19.2L39.7,-8.5Q29.8,0.6 18.9,7.7L14.9,-1.7Q17.6,-4 17.6,-7.1L17.6,-42.6L3.9,-42.6L3.9,-52.6Z"></path><path transform="translate(500 100)" d="M62.7,-73.4L72.8,-73.4L72.8,-11.9L62.7,-11.9L62.7,-73.4ZM67.8,9.5L65.4,-0.4Q72.5,0.2 78.6,0.2Q82.7,0.2 82.7,-3.7L82.7,-81.8L93.1,-81.8L93.1,-1Q93.1,9.5 82.2,9.5L67.8,9.5ZM54.4,-60.9L56.1,-50.9L28.2,-46.6Q28.8,-40.8 29.9,-35.3Q31,-29.6 32.3,-25.3Q39.6,-34.1 45.1,-46.1L54.2,-41.4Q46.9,-25.3 36.3,-13.7Q37.1,-11.8 38.1,-10Q43.1,-1.5 47.1,-1.3Q49.3,-1.7 51.7,-15.2L60.5,-9.4Q57.9,-1.3 55.5,3.5Q52.1,9.8 47.7,9.8Q40.5,9.8 33.4,0.1Q31.1,-3 29.1,-6.9Q20.3,0.3 9.7,4.8L3.5,-4.7Q15.2,-9.3 24.6,-17.5Q22.4,-23.8 21.2,-28.4Q19.4,-35.3 18.1,-45.1L6.2,-43.3L4.7,-53.3L17,-55.2Q15.9,-67.8 15.9,-81.9L26.5,-81.9Q26.5,-66.8 27.3,-56.8L54.4,-60.9ZM39.8,-82.5Q45.2,-75.8 50.1,-67.9L41.3,-63.5Q36.4,-72 31.3,-78.4L39.8,-82.5Z"></path><path transform="translate(0 200)" d="M1.5,-71.4L60,-71.4L60,-61.4L36.6,-61.4L36.6,-0L24.9,-0L24.9,-61.4L1.5,-61.4L1.5,-71.4Z"></path><path transform="translate(61 200)" d="M6,-72.8L17.4,-72.8L17.4,-44.8Q20.2,-49 24.5,-51.2Q28.2,-53.1 33.2,-53.1Q42.7,-53.1 47.3,-47.6Q51.7,-42.3 51.7,-32L51.7,-0L40.3,-0L40.3,-30Q40.3,-36.6 37.7,-40.1Q34.7,-43.8 28.9,-43.8Q23.5,-43.8 20.5,-39.6Q17.4,-35.5 17.4,-28.9L17.4,-0L6,-0L6,-72.8Z"></path><path transform="translate(119 200)" d="M47.5,-44.5Q53.7,-36.6 53.7,-22.7L15,-22.7Q15.6,-15.4 18.9,-11.7Q22.2,-7.9 28.4,-7.9Q33.6,-7.9 36.9,-10.3Q39.4,-12.2 41.5,-16.6L52.9,-16.6Q51.1,-9.3 45.7,-4.5Q38.7,1.4 28.5,1.4Q17,1.4 10.2,-5.7Q3,-13.1 3,-25.9Q3,-37.5 9.8,-45.2Q16.4,-53.1 28,-53.1Q40.8,-53.1 47.5,-44.5ZM19.4,-40.6Q16.3,-37.5 15.2,-31.3L41.8,-31.3Q40.3,-43.8 28.3,-43.8Q22.6,-43.8 19.4,-40.6Z"></path><path transform="translate(176 200)" d=""></path><path transform="translate(209 200)" d="M7,-71.4L36.6,-71.4Q62.5,-71.4 62.5,-49.5Q62.5,-27.4 36.4,-27.4L18.7,-27.4L18.7,-0L7,-0L7,-71.4ZM18.7,-61.4L18.7,-37.4L35.7,-37.4Q43.4,-37.4 47.1,-40.2Q50.7,-43.1 50.7,-49.5Q50.7,-55.8 47,-58.6Q43.5,-61.4 35.7,-61.4L18.7,-61.4Z"></path><path transform="translate(274 200)" d="M36.9,-51.8L36.9,-40.4Q33.3,-41.5 29.5,-41.5Q24.9,-41.5 21.4,-38Q17.3,-34 17.3,-27.4L17.3,-0L6,-0L6,-51.7L17.3,-51.7L17.3,-44.3Q19.4,-48.3 22.2,-50.3Q25.6,-53.1 30.4,-53.1Q34.3,-53.1 36.9,-51.8Z"></path><path transform="translate(311 200)" d="M48.9,-45.4Q56,-37.7 56,-25.8Q56,-14 49,-6.4Q41.8,1.4 30,1.4Q18.2,1.4 11,-6.4Q4,-13.8 4,-25.8Q4,-37.9 11.1,-45.4Q18.1,-53.1 30,-53.1Q41.8,-53.1 48.9,-45.4ZM19,-38.2Q15.7,-33.4 15.7,-25.8Q15.7,-18.3 19,-13.5Q22.9,-7.9 30,-7.9Q37.1,-7.9 41,-13.5Q44.4,-18.6 44.4,-25.8Q44.4,-33.3 41,-38.2Q37.2,-43.8 30,-43.8Q22.8,-43.8 19,-38.2Z"></path><path transform="translate(371 200)" d="M19.4,-70.7Q21.6,-68.5 21.6,-65.3Q21.6,-62 19.4,-59.8Q17,-57.7 13.8,-57.7Q10.5,-57.7 8.4,-59.8Q6.1,-62 6.1,-65.3Q6.1,-68.7 8.4,-70.7Q10.5,-72.8 13.8,-72.8Q17.2,-72.8 19.4,-70.7ZM8.1,-51.7L19.5,-51.7L19.5,4.7Q19.5,19.8 3.4,19.8L-1.5,19.8L-1.5,10.5L2.4,10.5Q8.1,10.5 8.1,4.2L8.1,-51.7Z"></path><path transform="translate(399 200)" d="M47.5,-44.5Q53.7,-36.6 53.7,-22.7L15,-22.7Q15.6,-15.4 18.9,-11.7Q22.2,-7.9 28.4,-7.9Q33.6,-7.9 36.9,-10.3Q39.4,-12.2 41.5,-16.6L52.9,-16.6Q51.1,-9.3 45.7,-4.5Q38.7,1.4 28.5,1.4Q17,1.4 10.2,-5.7Q3,-13.1 3,-25.9Q3,-37.5 9.8,-45.2Q16.4,-53.1 28,-53.1Q40.8,-53.1 47.5,-44.5ZM19.4,-40.6Q16.3,-37.5 15.2,-31.3L41.8,-31.3Q40.3,-43.8 28.3,-43.8Q22.6,-43.8 19.4,-40.6Z"></path><path transform="translate(456 200)" d="M45.2,-48.6Q51.4,-43.7 52.9,-34.1L41.6,-34.1Q40.6,-38.9 37.5,-41.4Q34.4,-43.8 29.2,-43.8Q22.8,-43.8 19.3,-39.1Q15.7,-34.5 15.7,-26Q15.7,-17.3 19.2,-12.6Q22.5,-7.9 29.1,-7.9Q40.4,-7.9 41.8,-19.2L53.1,-19.2Q51.3,-8.7 45.1,-3.6Q39,1.4 29,1.4Q17,1.4 10.4,-6.4Q4,-13.8 4,-25.9Q4,-37.7 10.3,-45Q17.1,-53.1 29.2,-53.1Q39.2,-53.1 45.2,-48.6Z"></path><path transform="translate(512 200)" d="M22.2,-68.4L22.2,-51.7L33.7,-51.7L33.7,-42.3L22.2,-42.3L22.2,-13.1Q22.2,-11.2 23,-10.3Q23.9,-9.4 25.6,-9.4L32.4,-9.4L32.4,-0L23.7,-0Q17,-0 13.8,-3.6Q10.8,-6.9 10.8,-13.1L10.8,-42.3L1.5,-42.3L1.5,-51.7L10.8,-51.7L10.8,-63.7L22.2,-68.4Z"></path><path transform="translate(548 200)" d=""></path><path transform="translate(581 200)" d="M7,-71.4L55.7,-71.4L55.7,-61.4L18.7,-61.4L18.7,-41.6L53.6,-41.6L53.6,-31.6L18.7,-31.6L18.7,-0L7,-0L7,-71.4Z"></path><path transform="translate(639 200)" d="M48.9,-45.4Q56,-37.7 56,-25.8Q56,-14 49,-6.4Q41.8,1.4 30,1.4Q18.2,1.4 11,-6.4Q4,-13.8 4,-25.8Q4,-37.9 11.1,-45.4Q18.1,-53.1 30,-53.1Q41.8,-53.1 48.9,-45.4ZM19,-38.2Q15.7,-33.4 15.7,-25.8Q15.7,-18.3 19,-13.5Q22.9,-7.9 30,-7.9Q37.1,-7.9 41,-13.5Q44.4,-18.6 44.4,-25.8Q44.4,-33.3 41,-38.2Q37.2,-43.8 30,-43.8Q22.8,-43.8 19,-38.2Z"></path><path transform="translate(699 200)" d="M36.9,-51.8L36.9,-40.4Q33.3,-41.5 29.5,-41.5Q24.9,-41.5 21.4,-38Q17.3,-34 17.3,-27.4L17.3,-0L6,-0L6,-51.7L17.3,-51.7L17.3,-44.3Q19.4,-48.3 22.2,-50.3Q25.6,-53.1 30.4,-53.1Q34.3,-53.1 36.9,-51.8Z"></path><path transform="translate(736 200)" d=""></path><path transform="translate(769 200)" d="M0.5,-71.4L13.7,-71.4L27.1,-17.1L27.5,-17.1L41.6,-71.4L53.7,-71.4L67.8,-17.1L68.2,-17.1L81.6,-71.4L94.8,-71.4L74.2,-0L61.8,-0L47.9,-53.7L47.5,-53.7L33.5,-0L21,-0L0.5,-71.4Z"></path><path transform="translate(864 200)" d="M47.5,-44.5Q53.7,-36.6 53.7,-22.7L15,-22.7Q15.6,-15.4 18.9,-11.7Q22.2,-7.9 28.4,-7.9Q33.6,-7.9 36.9,-10.3Q39.4,-12.2 41.5,-16.6L52.9,-16.6Q51.1,-9.3 45.7,-4.5Q38.7,1.4 28.5,1.4Q17,1.4 10.2,-5.7Q3,-13.1 3,-25.9Q3,-37.5 9.8,-45.2Q16.4,-53.1 28,-53.1Q40.8,-53.1 47.5,-44.5ZM19.4,-40.6Q16.3,-37.5 15.2,-31.3L41.8,-31.3Q40.3,-43.8 28.3,-43.8Q22.6,-43.8 19.4,-40.6Z"></path><path transform="translate(921 200)" d="M6,-72.8L17.4,-72.8L17.4,-44.6Q23.7,-53.1 32.8,-53.1Q43.9,-53.1 50.3,-45Q56.2,-37.4 56.2,-26.1Q56.2,-14.2 50.2,-6.7Q43.6,1.4 32.2,1.4Q22,1.4 16.6,-5.5L16.6,-0L6,-0L6,-72.8ZM21,-39.4Q17,-34.7 17,-26.3L17,-25.5Q17,-17.8 20.2,-13.1Q23.8,-7.8 30.5,-7.8Q38,-7.8 41.6,-13.2Q44.5,-17.8 44.5,-26.1Q44.5,-34.3 41.4,-38.8Q37.8,-43.9 30.1,-43.9Q24.6,-43.9 21,-39.4Z"></path></svg>