<svg  xmlns="http://www.w3.org/2000/svg" xmlns:xlink="http://www.w3.org/1999/xlink" width="929" height="200" viewBox="0 0 953 224"><path transform="translate(0 100)" d="M48.9,-81.4L51.1,-81.4L51.1,-62L87.7,-62L87.7,-17.8L85.5,-17.8L85.5,-25.3L51.1,-25.3L51.1,10L48.9,10L48.9,-25.3L14.6,-25.3L14.6,-17.8L12.4,-17.8L12.4,-62L48.9,-62L48.9,-81.4ZM14.6,-27.4L48.9,-27.4L48.9,-59.8L14.6,-59.8L14.6,-27.4ZM51.1,-27.4L85.5,-27.4L85.5,-59.8L51.1,-59.8L51.1,-27.4Z"></path><path transform="translate(100 100)" d="M7.6,-62.3L51.5,-62.3Q47.4,-71.8 40.5,-80.4L42.6,-81.2Q48.6,-73.6 53.8,-62.3L92.4,-62.3L92.4,-60.1L76,-60.1Q68.6,-33.9 52.5,-17.2Q69.3,-1.8 94.8,7.7L93.7,9.4Q68,-0.1 51,-15.6Q33.1,2 6.4,9.7L5.4,7.8Q32.6,-0 49.6,-16.9Q30.8,-34.8 23.4,-60.1L7.6,-60.1L7.6,-62.3ZM25.7,-60.1Q32.9,-35.8 51.1,-18.5Q67.1,-35.2 73.8,-60.1L25.7,-60.1Z"></path><path transform="translate(200 100)" d="M49.3,-12.6Q41.2,-25 36.2,-31.8Q29.9,-14.7 20.9,-3L19.4,-4.6Q28.6,-16.8 34.7,-33.8Q26.2,-45.4 18.8,-53.1L20.3,-54.6Q27.7,-46.9 35.5,-36.2Q39.9,-49.7 42.2,-64.2L44.3,-63.8Q41.7,-48 37,-34.1Q43.6,-25.1 50.8,-14L49.3,-12.6ZM79.7,-8.3Q72.5,-20.3 66.2,-29.6Q59.6,-12.5 49.8,-0.6L48.4,-2.1Q58.5,-14.9 64.7,-31.8Q55.5,-45.1 48.9,-52.4L50.5,-53.9Q57.2,-46.4 65.6,-34.2Q70.2,-47.3 73,-63.9L75.1,-63.5Q72.1,-46.4 67.1,-32Q73,-23.2 81.2,-9.7L79.7,-8.3ZM71.1,8.7L70.4,6.5L80.7,6.6Q85.8,6.6 85.8,1.3L85.8,-73.5L14.2,-73.5L14.2,8.8L12,8.8L12,-75.7L88,-75.7L88,1.7Q88,8.7 81.4,8.7L71.1,8.7Z"></path><path transform="translate(300 100)" d="M91.2,-69.3L91.2,-49.5L89,-49.5L89,-67.1L11,-67.1L11,-49.5L8.8,-49.5L8.8,-69.3L50.5,-69.3Q48.4,-75.9 46,-81L48.1,-81.4Q50.5,-76.1 52.6,-69.3L91.2,-69.3ZM23.7,-52.3L75.8,-52.3L75.8,-50.2Q65.4,-42.9 52.3,-36L52.3,-25.4L93.6,-25.4L93.6,-23.2L52.3,-23.2L52.3,3.2Q52.3,8.9 46.3,8.9L34.1,8.9L33.5,6.7L45.4,6.8Q50.2,6.8 50.2,2.4L50.2,-23.2L6.5,-23.2L6.5,-25.4L50.2,-25.4L50.2,-37.3Q66.6,-45.6 72.2,-50.2L23.7,-50.2L23.7,-52.3Z"></path><path transform="translate(400 100)" d="M36.5,-49.2L65.5,-49.2L65.5,-81.1L67.7,-81.1L67.7,-49.2L95.3,-49.2L95.3,-47L67.7,-47L67.7,9.5L65.5,9.5L65.5,-47L36.5,-47L36.5,-49.2ZM13.8,-79.6Q24.6,-71.5 32.2,-62.9L30.8,-61.4Q23.4,-69.6 12.3,-78.2L13.8,-79.6ZM5.3,-48.8L23.7,-48.8L23.7,-0.1Q31,-5.7 39.2,-13.6L39.7,-11.3Q30.9,-2.5 21,4.3L20.1,2.4Q21.6,1 21.6,-0L21.6,-46.6L5.3,-46.6L5.3,-48.8Z"></path><path transform="translate(500 100)" d="M66.7,-72.3L68.9,-72.3L68.9,-8.7L66.7,-8.7L66.7,-72.3ZM67.6,8.4L67.2,6.3Q76.8,6.5 81.2,6.5Q86.8,6.5 86.8,0.6L86.8,-80.7L89,-80.7L89,1.1Q89,8.4 82,8.4L67.6,8.4ZM54.1,-57L54.4,-54.8L23.6,-49.9Q24.7,-38.6 26.7,-30.2Q28.3,-23.6 30.7,-16.7Q41.7,-28.3 48.9,-44.5L50.9,-43.4Q43.1,-26.3 31.5,-14.4Q33.8,-7.7 36.9,-2.8Q43.4,6.5 48.5,6.7Q52,6.1 55.9,-12L57.7,-10.8Q56,-2.9 54,2.3Q51.6,8.7 48.6,8.7Q42.4,8.7 35.7,-0.7Q32.4,-5.7 29.7,-12.7Q19.1,-2.7 5.8,2.8L4.6,0.9Q18.2,-4.6 28.9,-14.9Q26.4,-21.8 24.8,-28.6Q22.7,-37.5 21.5,-49.6L6.6,-47.2L6.3,-49.4L21.3,-51.8Q20.1,-64.7 20.1,-80.8L22.3,-80.8Q22.3,-63.9 23.4,-52.1L54.1,-57ZM35.5,-81.4Q41.6,-74.2 46.8,-65.7L44.8,-64.7Q39.4,-73.7 33.6,-80.4L35.5,-81.4Z"></path><path transform="translate(0 200)" d="M2,-71.4L60.5,-71.4L60.5,-69L32.5,-69L32.5,-0L30.1,-0L30.1,-69L2,-69L2,-71.4Z"></path><path transform="translate(62 200)" d="M6.5,-72.8L9,-72.8L9,-40.6Q11.8,-46.6 16.4,-49.8Q21.2,-53.1 26.9,-53.1Q35.5,-53.1 40.5,-48.1Q45.8,-42.8 45.8,-33.6L45.8,-0L43.4,-0L43.4,-33.6Q43.4,-41.8 38.8,-46.4Q34.4,-50.7 26.9,-50.7Q19.7,-50.7 14.4,-44.8Q9,-39 9,-30.5L9,-0L6.5,-0L6.5,-72.8Z"></path><path transform="translate(114 200)" d="M44.4,-45Q49.4,-38 50,-25L5.9,-25Q6.2,-14.1 11.8,-7.6Q17.5,-1 26.7,-1Q34.9,-1 40.1,-5.6Q44.4,-9.6 46.2,-16.6L48.8,-16.6Q47,-9 42.1,-4.2Q36,1.4 26.7,1.4Q16.2,1.4 9.8,-6.2Q3.5,-13.9 3.5,-25.9Q3.5,-37.2 9.6,-44.8Q16,-53.1 26.7,-53.1Q38.6,-53.1 44.4,-45ZM12,-44Q6.4,-37.5 5.9,-27.4L47.5,-27.4Q45.9,-50.7 26.7,-50.7Q17.7,-50.7 12,-44Z"></path><path transform="translate(167 200)" d=""></path><path transform="translate(200 200)" d="M7.5,-71.4L36.1,-71.4Q58.5,-71.4 58.5,-51.9Q58.5,-32.2 36.1,-32.2L9.9,-32.2L9.9,-0L7.5,-0L7.5,-71.4ZM9.9,-69L9.9,-34.6L36.1,-34.6Q46.2,-34.6 51.3,-39.1Q56.1,-43.5 56.1,-51.9Q56.1,-60.3 51.3,-64.5Q46.2,-69 36.1,-69L9.9,-69Z"></path><path transform="translate(262 200)" d="M34.6,-52.1L34.6,-49.5Q30.4,-50.7 26.3,-50.7Q17.8,-50.7 13,-42.6Q9,-35.9 9,-27.3L9,-0L6.5,-0L6.5,-51.7L9,-51.7L9,-40.2Q10.9,-45.5 15.2,-49Q19.9,-53.1 26.4,-53.1Q31.7,-53.1 34.6,-52.1Z"></path><path transform="translate(297 200)" d="M46,-44.5Q51.9,-36.9 51.9,-25.8Q51.9,-15 46,-7.1Q39.3,1.4 28.2,1.4Q17.1,1.4 10.4,-7.1Q4.5,-14.8 4.5,-25.8Q4.5,-37.1 10.4,-44.5Q16.9,-53.1 28.2,-53.1Q39.5,-53.1 46,-44.5ZM12.3,-43.1Q6.9,-36.2 6.9,-25.8Q6.9,-15.5 12.3,-8.6Q18.2,-1 28.2,-1Q38,-1 44.1,-8.6Q49.5,-15.5 49.5,-25.8Q49.5,-36.2 44.1,-43.1Q38.1,-50.7 28.2,-50.7Q18.1,-50.7 12.3,-43.1Z"></path><path transform="translate(353 200)" d="M16.2,-67.6Q17.1,-66.7 17.1,-65.3Q17.1,-63.9 16.2,-63Q15,-62 13.8,-62Q12.4,-62 11.4,-63Q10.5,-63.9 10.5,-65.3Q10.5,-66.7 11.4,-67.6Q12.3,-68.6 13.8,-68.6Q15.2,-68.6 16.2,-67.6ZM12.6,-51.7L15,-51.7L15,8.1Q15,19.8 3.2,19.8L-1.5,19.8L-1.5,17.4L3.2,17.4Q12.6,17.4 12.6,8.1L12.6,-51.7Z"></path><path transform="translate(378 200)" d="M44.4,-45Q49.4,-38 50,-25L5.9,-25Q6.2,-14.1 11.8,-7.6Q17.5,-1 26.7,-1Q34.9,-1 40.1,-5.6Q44.4,-9.6 46.2,-16.6L48.8,-16.6Q47,-9 42.1,-4.2Q36,1.4 26.7,1.4Q16.2,1.4 9.8,-6.2Q3.5,-13.9 3.5,-25.9Q3.5,-37.2 9.6,-44.8Q16,-53.1 26.7,-53.1Q38.6,-53.1 44.4,-45ZM12,-44Q6.4,-37.5 5.9,-27.4L47.5,-27.4Q45.9,-50.7 26.7,-50.7Q17.7,-50.7 12,-44Z"></path><path transform="translate(431 200)" d="M41.8,-48.6Q47.5,-44.1 48.5,-35.2L46.1,-35.2Q45.1,-42.8 40.2,-46.8Q35.1,-50.7 27.4,-50.7Q17.9,-50.7 12.3,-43.3Q6.9,-36.4 6.9,-25.2Q6.9,-14.4 12,-7.8Q17.4,-1 27.3,-1Q43.5,-1 46.4,-18L48.8,-18Q47.3,-8.6 41.8,-3.6Q36.2,1.4 27.3,1.4Q16.1,1.4 10.1,-6.4Q4.5,-13.5 4.5,-25.2Q4.5,-37.1 10.4,-44.8Q16.6,-53.1 27.4,-53.1Q36.1,-53.1 41.8,-48.6Z"></path><path transform="translate(483 200)" d="M16.5,-68.4L16.5,-51.7L31.3,-51.7L31.3,-49.3L16.5,-49.3L16.5,-10.5Q16.5,-6 18,-4.2Q19.4,-2.4 23.7,-2.4L30.1,-2.4L30.1,-0L23.7,-0Q18.1,-0 15.9,-2.8Q14.1,-5.2 14.1,-10.5L14.1,-49.3L2,-49.3L2,-51.7L14.1,-51.7L14.1,-67.3L16.5,-68.4Z"></path><path transform="translate(517 200)" d=""></path><path transform="translate(550 200)" d="M7.5,-71.4L53.8,-71.4L53.8,-69L9.9,-69L9.9,-38.1L51.7,-38.1L51.7,-35.8L9.9,-35.8L9.9,-0L7.5,-0L7.5,-71.4Z"></path><path transform="translate(607 200)" d="M46,-44.5Q51.9,-36.9 51.9,-25.8Q51.9,-15 46,-7.1Q39.3,1.4 28.2,1.4Q17.1,1.4 10.4,-7.1Q4.5,-14.8 4.5,-25.8Q4.5,-37.1 10.4,-44.5Q16.9,-53.1 28.2,-53.1Q39.5,-53.1 46,-44.5ZM12.3,-43.1Q6.9,-36.2 6.9,-25.8Q6.9,-15.5 12.3,-8.6Q18.2,-1 28.2,-1Q38,-1 44.1,-8.6Q49.5,-15.5 49.5,-25.8Q49.5,-36.2 44.1,-43.1Q38.1,-50.7 28.2,-50.7Q18.1,-50.7 12.3,-43.1Z"></path><path transform="translate(663 200)" d="M34.6,-52.1L34.6,-49.5Q30.4,-50.7 26.3,-50.7Q17.8,-50.7 13,-42.6Q9,-35.9 9,-27.3L9,-0L6.5,-0L6.5,-51.7L9,-51.7L9,-40.2Q10.9,-45.5 15.2,-49Q19.9,-53.1 26.4,-53.1Q31.7,-53.1 34.6,-52.1Z"></path><path transform="translate(698 200)" d=""></path><path transform="translate(731 200)" d="M0.5,-71.4L3.2,-71.4L22.7,-2.3L23,-2.3L42.8,-71.4L46.5,-71.4L66.3,-2.3L66.6,-2.3L86.1,-71.4L88.8,-71.4L68.3,-0L64.7,-0L44.8,-68.9L44.5,-68.9L24.6,-0L21,-0L0.5,-71.4Z"></path><path transform="translate(820 200)" d="M44.4,-45Q49.4,-38 50,-25L5.9,-25Q6.2,-14.1 11.8,-7.6Q17.5,-1 26.7,-1Q34.9,-1 40.1,-5.6Q44.4,-9.6 46.2,-16.6L48.8,-16.6Q47,-9 42.1,-4.2Q36,1.4 26.7,1.4Q16.2,1.4 9.8,-6.2Q3.5,-13.9 3.5,-25.9Q3.5,-37.2 9.6,-44.8Q16,-53.1 26.7,-53.1Q38.6,-53.1 44.4,-45ZM12,-44Q6.4,-37.5 5.9,-27.4L47.5,-27.4Q45.9,-50.7 26.7,-50.7Q17.7,-50.7 12,-44Z"></path><path transform="translate(873 200)" d="M6.5,-72.8L8.9,-72.8L8.9,-38.2Q14.1,-53.1 28.8,-53.1Q39.5,-53.1 45.8,-44.6Q51.4,-37 51.4,-25.8Q51.4,-14.5 45.9,-6.9Q39.7,1.4 28.8,1.4Q14.2,1.4 8.9,-13.4L8.9,-0L6.5,-0L6.5,-72.8ZM13.8,-43.4Q8.9,-36.9 8.9,-26.3L8.9,-24.9Q8.9,-14.6 13.9,-8.1Q19.2,-1 28.8,-1Q38.4,-1 44,-8.3Q49,-15.3 49,-25.8Q49,-36.5 43.9,-43.2Q38.4,-50.7 28.8,-50.7Q19.2,-50.7 13.8,-43.4Z"></path></svg>